<svg xmlns="http://www.w3.org/2000/svg" width="180" height="100">
  <rect width="100%" height="100%" fill="green" />
  <g fill="black">
    <g>
      <g transform="translate(10 10)">
        <circle cx="0" cy="0" r="9"/>
        <circle cx="20" cy="0" r="9"/>
        <circle cx="40" cy="0" r="9" fill="red"/>
        <circle cx="60" cy="0" r="9"/>
        <circle cx="80" cy="0" r="9"/>
        <circle cx="100" cy="0" r="9" fill="red"/>
        <circle cx="120" cy="0" r="9" fill="red"/>
        <circle cx="140" cy="0" r="9" fill="red"/>
        <circle cx="160" cy="0" r="9" fill="red"/>
      </g>
      <g transform="translate(10 30)">
        <circle cx="0" cy="0" r="9"/>
        <circle cx="20" cy="0" r="9" fill="red"/>
        <circle cx="40" cy="0" r="9" fill="red"/>
        <circle cx="60" cy="0" r="9"/>
        <circle cx="80" cy="0" r="9"/>
        <circle cx="100" cy="0" r="9" fill="red"/>
        <circle cx="120" cy="0" r="9"/>
        <circle cx="140" cy="0" r="9"/>
        <circle cx="160" cy="0" r="9" fill="red"/>
      </g>
      <g transform="translate(10 50)">
        <circle cx="0" cy="0" r="9"/>
        <circle cx="20" cy="0" r="9"/>
        <circle cx="40" cy="0" r="9" fill="red"/>
        <circle cx="60" cy="0" r="9"/>
        <circle cx="80" cy="0" r="9"/>
        <circle cx="100" cy="0" r="9" fill="red"/>
        <circle cx="120" cy="0" r="9"/>
        <circle cx="140" cy="0" r="9"/>
        <circle cx="160" cy="0" r="9" fill="red"/>
      </g>
      <g transform="translate(10 70)">
        <circle cx="0" cy="0" r="9"/>
        <circle cx="20" cy="0" r="9"/>
        <circle cx="40" cy="0" r="9" fill="red"/>
        <circle cx="60" cy="0" r="9"/>
        <circle cx="80" cy="0" r="9"/>
        <circle cx="100" cy="0" r="9" fill="red"/>
        <circle cx="120" cy="0" r="9"/>
        <circle cx="140" cy="0" r="9"/>
        <circle cx="160" cy="0" r="9" fill="red"/>
      </g>
      <g transform="translate(10 90)">
        <circle cx="0" cy="0" r="9"/>
        <circle cx="20" cy="0" r="9"/>
        <circle cx="40" cy="0" r="9" fill="red"/>
        <circle cx="60" cy="0" r="9"/>
        <circle cx="80" cy="0" r="9"/>
        <circle cx="100" cy="0" r="9" fill="red"/>
        <circle cx="120" cy="0" r="9" fill="red"/>
        <circle cx="140" cy="0" r="9" fill="red"/>
        <circle cx="160" cy="0" r="9" fill="red"/>
      </g>
    </g>
  </g>
</svg>